<?xml version="1.0" encoding="UTF-8"?>
<svg id="Ebene_1" data-name="Ebene 1" xmlns="http://www.w3.org/2000/svg" version="1.1" viewBox="0 0 100 100">
  <defs>
    <style>
      .cls-1 {
        fill: #0083e9;
        stroke-width: 0px;
      }
    </style>
  </defs>
  <path class="cls-1" d="M55.6,84l2.4,1.1c6.3,2.6,11.1,3.9,14.4,3.9s2.4-.1,4.2-.5l-4.3,10c-1.2.1-2.2.3-3.2.3-3.8,0-9-1.6-15.8-4.9-5.8-2.8-10.3-4.2-13.6-4.2s-6.2.9-8.2,2.8l-3.4-4.9c2.3-2.4,5.3-4,8.9-4.9-6.5-2-12-5.3-16.5-9.9-4.5-4.6-7.6-9.4-9.4-14.6-1.8-5.3-2.7-10.4-2.7-15.5,0-11.3,3.8-21.1,11.2-29.2S37.1,1.6,49.5,1.6s22.5,3.9,30.2,11.7c7.7,7.8,11.6,17.7,11.6,29.6s-1.2,12.3-3.6,18.1-6.6,10.8-12.4,15.4c-5.7,4.3-12.4,6.9-19.7,7.6ZM21.7,42.5c0,8.8,2.6,16.2,7.7,22.1,5.1,5.9,11.9,8.9,20.4,8.9s15.1-3.1,20.5-9.2c5.4-6.1,8.1-13.2,8.1-21.7s-2.7-15.8-8.2-21.7c-5.4-5.9-12.3-8.9-20.5-8.9s-14.8,3-20.1,8.8c-5.3,5.8-7.8,13.1-7.8,21.7Z"/>
</svg>