<?xml version="1.0" encoding="UTF-8"?>
<svg id="Ebene_1" data-name="Ebene 1" xmlns="http://www.w3.org/2000/svg" version="1.1" viewBox="0 0 760.9 517.3">
  <defs>
    <style>
      .cls-1, .cls-2, .cls-3, .cls-4 {
        stroke-width: 10px;
      }

      .cls-1, .cls-2, .cls-3, .cls-4, .cls-5, .cls-6, .cls-7, .cls-8, .cls-9 {
        stroke-miterlimit: 10;
      }

      .cls-1, .cls-2, .cls-8 {
        stroke: #0e758e;
      }

      .cls-1, .cls-4, .cls-5, .cls-7, .cls-8 {
        fill: none;
      }

      .cls-2, .cls-3 {
        fill: #53c3f1;
      }

      .cls-3, .cls-4 {
        stroke: #0c748d;
      }

      .cls-10 {
        fill: #1d1d1b;
        stroke-width: 0px;
      }

      .cls-5, .cls-6, .cls-7, .cls-9 {
        stroke: #1d1d1b;
      }

      .cls-5, .cls-9 {
        stroke-width: 25px;
      }

      .cls-6, .cls-7 {
        stroke-width: 23px;
      }

      .cls-6, .cls-9 {
        fill: #fff;
      }

      .cls-8 {
        stroke-width: 3px;
      }
    </style>
  </defs>
  <path class="cls-5" d="M186.6,105.2c-72.9,6.8-116.6,60.9-130.8,80.9-36.9,51.9-36.6,106-35.9,128.8,2.3,68.3,24.7,111.8,52.4,139.7,42.5,42.7,97.1,47.4,115.6,49.2,28.8,2.8,57.8-.3,85.4-9,17.1-7.6,33-17.7,47.2-29.9,0,0,18.3-15.9,31.9-36.1,39-57.9,27.3-141.4,26.4-147.2-1.3-8.6-2.8-21.4-7.8-37.8-5.9-19.6-22.8-75.4-77-110.9-14.9-9.8-54.8-32.8-107.6-27.8Z"/>
  <path class="cls-2" d="M227.4,7.8c14.6,2,27.4,3.8,42.9,11.3,6.7,3.2,33.4,16,50.5,40.8,6.4,9.3,10.4,18.7,21.7,24.5,5.1,2.6,9.8,3.5,12.5,8.3s.7,8.5,2.8,18.1c1.1,5,2.4,7.6,3.7,11.3,2.7,7.1,4.2,14.4,6,30.4,5.8,53.7,8.7,80.5,2.1,83.3-12.3,5.2-29.7-51-91.1-81.7-17.9-8.7-37.2-14.4-57-16.8-12.2-1.5-70.5-7.4-121.4,27.1-41.7,28.3-52,65.7-61.7,61.7-14.1-5.9,10.3-86,3.5-114.6-.6-2.3-2.9-10.9,1.4-18.1,2.7-4.6,6.7-6.2,10.4-8.3,12.5-7.4,17.6-19.1,22.9-27.1,13.2-20.1,46.2-38.5,74.1-46.7,32.6-9.6,59.8-5.8,76.8-3.4Z"/>
  <path class="cls-5" d="M235.2,440.6c12,1.8,30.8,6.2,49.3,18.8,22.8,15.4,27.5,31,47.2,38.2,10.2,3.7,27,6.1,52.8-4.9"/>
  <path class="cls-9" d="M-117.9-8.7"/>
  <path class="cls-6" d="M-101.2,155.1"/>
  <path class="cls-6" d="M710.6,263.8l.8-231.2"/>
  <line class="cls-7" x1="602.2" y1="354.6" x2="730.3" y2="355.5"/>
  <line class="cls-7" x1="601.3" y1="466" x2="729.5" y2="466.9"/>
  <path class="cls-7" d="M722.4,358.5l-112.9,104.5"/>
  <path class="cls-6" d="M572.4,340.9v137"/>
  <path class="cls-6" d="M745.9,263.4"/>
  <path class="cls-7" d="M424.1,135.4c-11.5,57.4-7.5,104.9,14,113.8,7.4,3,19.9,2.8,40.2,2.5,18.8-.3,28.3-.5,34-3.1,20.8-9.3,21.8-57.5,8.2-115.8"/>
  <path class="cls-7" d="M570.2,135.4c-11.5,57.4-7.5,104.9,14,113.8,7.4,3,19.9,2.8,40.2,2.5,18.8-.3,28.3-.5,34-3.1,20.8-9.3,21.8-57.5,8.2-115.8"/>
  <path class="cls-7" d="M424.5,343.5c-12.2,60.9-7.9,111.3,14.9,120.8,7.8,3.2,21.1,3,42.6,2.6,20-.4,30-.5,36.1-3.3,22-9.9,23.1-61,8.7-122.9"/>
  <path class="cls-3" d="M20.3,178.1c-7.6,10.7-9.7,21.8-11.8,32.6-3.4,17.5-5.9,30.4,0,36.1,10.5,10.2,38.5-11.2,85.4-27.8,54.6-19.3,99.9-19.7,110.6-19.7,55.6.2,100.2,17.8,106.7,20.4,44.7,17.9,71,42.1,82,32.6,6.6-5.7,4.4-20.8,2.1-36.1-.6-4.2-2.7-17.7-9-29.9-12.2-23.6-35.4-33.1-71.7-47.9-21.7-8.9-44.4-15.2-67.5-18.6-11.2-1.7-22.5-2.6-33.9-2.9-42.5-1-73.9,7.7-101.4,15.3-17.9,5-28.4,9.9-47,18-32.9,14.4-39.9,21.4-44.5,27.8Z"/>
  <path class="cls-9" d="M456.9,47.9"/>
  <path class="cls-2" d="M400.9-58.7"/>
  <path class="cls-2" d="M-71.3,125.3"/>
  <path class="cls-4" d="M50.4,86.9c9.3-6.4,19.5-11.3,30.4-14.4,11.5-3.2,14.9-1.8,25.7-5.6,10.2-3.6,19.6-9,27.8-16,0,0-2.6,1.8-14.5,10.1"/>
  <path class="cls-2" d="M303.7,78.1"/>
  <path class="cls-1" d="M350.8,88.3c-14.7-8.7-26.5-10.6-34.8-10.6-7.7,0-13.1,1.6-24.9.4-9.4-.9-14.4-1.3-19.4-3.5-7.4-3.2-12.6-8.2-12.5-8.3s2.5,1.4,12.5,8.4"/>
  <path class="cls-8" d="M82.1,157.7c-.1,1.6-.3,4.1-.8,7.3-1.7,11.7-4.1,14.5-4.7,22.2s1.8,6,1.4,15.3c-.2,6.8-1.6,11.1-.4,18.7.3,2,.7,4,1.3,6"/>
  <path class="cls-8" d="M97.1,135.4c-5.9,7.7-7.8,14.2-8.3,18.8-.5,4.1.1,6.1-1.2,10.8-1.4,5-3.2,6.7-4.2,12.2-.5,2.6-.7,5.2-.6,7.9.1,5.3,1.3,10.4,3.3,15.3"/>
  <path class="cls-8" d="M305.4,207.2c3.9-6.2,6.4-13.2,7.4-20.5.7-5.3.2-9.3,1.9-17.8,1-4.8,1.5-5.8,2.1-9.4.9-5.7.7-11.6-.6-17.2"/>
  <path class="cls-8" d="M293.5,213.1c8.8-10.1,11.2-18.2,11.7-23.9.1-3.5.5-7,1-10.5,1.2-7.2,2.7-9.5,3.6-14.5.9-5.3.6-10.8-.8-16"/>
  <path class="cls-8" d="M315.6,200.8c2.1-4,3.5-8.2,4.2-12.6,1.1-6.7-.3-8.7.7-17.6.6-5.5,1.3-6.1,2.2-12.2.8-5.3,1.1-10.7,1-16.1"/>
  <path class="cls-8" d="M299.2,69.9c.6-2.9,1.5-5.7,2.6-8.4,1.4-3.5,2.4-4.6,2.8-7,.6-3.3.1-6.6-1.3-9.6"/>
  <path class="cls-8" d="M291.2,75.1c2.2-2.3,3.7-5.2,4.2-8.3.4-2.6-.2-4.3,1.1-6.8.9-1.7,1.8-2.1,2.6-3.9.7-1.6.9-3.4.6-5.2"/>
  <path class="cls-8" d="M79.2,77.3c-2.5,5.3-4.5,10.8-6,16.4-1.6,6.2-1.1,6.7-3.2,14.3-1.8,6.6-2.8,8.6-2.9,12.5,0,3.8.8,7.6,2.3,11.1"/>
  <path class="cls-8" d="M82.2,86.4c-1.7,2.9-3,6-4,9.2-1.2,3.9-1.1,5.6-2.4,11.3-1.8,7.9-2.4,7-2.8,10.7-.3,2.6-.1,4.6,1.8,15.4.8,4.2,1.4,8,2,11.1"/>
  <path class="cls-8" d="M166.8,78.1c-.8,1.8-1.8,4.1-2.8,6.8-1,2.6-1.9,5.3-2.6,8-.9,2.8-1.4,5.8-1.7,8.7-.3,5.1,1,6.3.8,11-.2,3-.8,5.9-2,8.7"/>
  <path class="cls-8" d="M172,78.1c-.9,1.7-1.7,3.4-2.3,5.2-.7,2-.6,2.4-1.2,4.7-1.4,5-2.4,4.9-2.9,8.4-.3,2-.4,4.1-.2,6.1,0,1.3.2,2.7.5,4,.6,3.6.7,7.3.5,11"/>
  <path class="cls-8" d="M179.7,66.2c-.6,2-1.1,4.1-1.5,6.1-.7,3.9-.4,4.9-.9,7.6-.9,4.4-2.2,5-3.7,9.4-1.1,3.3-1.6,6.8-1.6,10.2"/>
  <path class="cls-6" d="M747.3,127.1v137"/>
  <circle class="cls-10" cx="572.4" cy="312.1" r="13.2"/>
  <circle class="cls-10" cx="747.3" cy="95.8" r="13.2"/>
</svg>